<svg version="1.1" id="Layer_1" xmlns="http://www.w3.org/2000/svg" xmlns:xlink="http://www.w3.org/1999/xlink" x="0px" y="0px" viewBox="0 0 384 76.3" style="enable-background:new 0 0 384 76.3;" xml:space="preserve">
<style type="text/css">
	.st0{fill:#FFFFFF;}
</style>
<g>
	<path class="st0" d="M111.2,24.3h7.4l4,15.5l8.2-15.5h7.5l0.8,29.1h-7.6l-0.1-16.7h-0.1l-9,16.7h-3l-4.6-16.7h-0.1l-4.5,16.7h-7.5   L111.2,24.3z"/>
	<path class="st0" d="M149.4,48.3l-2.6,5.1h-8l14.8-29.1h8.3l7.4,29.1H161l-1.3-5.1H149.4z M156.5,33.3L156.5,33.3l-4.3,9.3h6.3   L156.5,33.3z"/>
	<path class="st0" d="M179.7,53.4h-7.6l2.8-22.7h-6.2l0.8-6.4h20.1l-0.8,6.4h-6.2L179.7,53.4z"/>
	<path class="st0" d="M210.9,34.1c-1.3-2.1-3.7-3.2-6.2-3.2c-4.6,0-8.2,3.5-8.7,8.1c-0.6,4.6,2.2,7.9,6.9,7.9c2.5,0,5.1-1.2,6.9-3.1   l-1.1,9.1c-2.6,0.8-4.5,1.4-6.8,1.4c-4,0-7.7-1.5-10.4-4.3c-2.8-2.9-3.8-6.7-3.3-11c0.5-4,2.5-7.8,5.6-10.6   c3.2-2.9,7.6-4.7,11.6-4.7c2.4,0,4.6,0.5,6.7,1.5L210.9,34.1z"/>
	<path class="st0" d="M232.9,35.5l1.4-11.2h7.6l-3.6,29.1h-7.6l1.5-11.9h-10.9l-1.5,11.9h-7.6l3.6-29.1h7.6L222,35.5H232.9z"/>
	<path class="st0" d="M265.4,34.1c-1.3-2.1-3.7-3.2-6.2-3.2c-4.6,0-8.2,3.5-8.7,8.1c-0.6,4.6,2.2,7.9,6.9,7.9c2.5,0,5.1-1.2,6.9-3.1   l-1.1,9.1c-2.6,0.8-4.5,1.4-6.8,1.4c-4,0-7.7-1.5-10.4-4.3c-2.8-2.9-3.8-6.7-3.3-11c0.5-4,2.5-7.8,5.6-10.6   c3.2-2.9,7.6-4.7,11.6-4.7c2.4,0,4.6,0.5,6.7,1.5L265.4,34.1z"/>
	<path class="st0" d="M277.1,30.7l-0.6,4.9h8.5l-0.8,6.4h-8.5l-0.6,5h9l-0.8,6.4h-16.5l3.6-29.1h16.5l-0.8,6.4H277.1z"/>
	<path class="st0" d="M290.6,24.3h7.6l11.7,17.8h0.1l2.2-17.8h7.6L316,53.4h-7.6l-11.7-17.8h-0.1l-2.2,17.8H287L290.6,24.3z"/>
	<path class="st0" d="M331.6,53.4H324l2.8-22.7h-6.2l0.8-6.4h20.1l-0.8,6.4h-6.2L331.6,53.4z"/>
	<path class="st0" d="M350,30.7l-0.6,4.9h8.5l-0.8,6.4h-8.5l-0.6,5h9l-0.8,6.4h-16.5l3.6-29.1h16.5l-0.8,6.4H350z"/>
	<path class="st0" d="M384,53.4h-9.4l-5.8-11.2h-0.1l-1.4,11.2h-7.6l3.6-29.1h11.3c5.7,0,9.8,2.7,9,8.9c-0.5,4-3.2,7.5-7.4,8.2   L384,53.4z M369.4,37.4h0.7c2.5,0,5.3-0.5,5.7-3.6c0.4-3.2-2.3-3.6-4.8-3.6h-0.7L369.4,37.4z"/>
</g>
<g>
	<g>
		<polygon class="st0" points="76.4,15.5 76.4,15.5 76.4,15.5 0,42.9 25,48.7 16.2,76.3   "/>
	</g>
	<polygon class="st0" points="49.7,21.5 38.8,0 29.8,28.7  "/>
	<polygon class="st0" points="81.9,42.8 60.8,36 45.6,51.4 70.2,76.3 70.3,76.3 61.5,48.7  "/>
</g>
</svg>